# xmcd
# 
# Track frame offsets:
#     150
#     16495
#     31605
#     43107
#     58184
#     77946
#     91970
#     105457
#     119568
#     133363
#     147549
#     164839
#     179474
#     194640
#     206850
#     217926
#     230044
#     242177
#     254438
#     269839
# 
# Disc length: 3828
# 
# Revision: 3
# Processed by: cddbd v1.5.2PL0 Copyright (c) Steve Scherf et al.
# Submitted via: BonkEnc v1.0.6
# 
DISCID=440ef214
DTITLE=Milionario e Jose Rico - As Vinte Mais
DYEAR=0
DGENRE=sertaneja
TTITLE0=Viva a vida
TTITLE1=A gangorra
TTITLE2=O tropeiro
TTITLE3=Corpo e alma
TTITLE4=Sonhei com voce
TTITLE5=Cancao de um amor distante
TTITLE6=Ilusao perdida
TTITLE7=A fossa
TTITLE8=Va por inferno com seu amor
TTITLE9=Agora e outro
TTITLE10=Orgulhosa e bonita
TTITLE11=Faz um ano
TTITLE12=Jogo do amor
TTITLE13=Nasci para te amar
TTITLE14=Lagrimas que choram
TTITLE15=Amor com amor se paga
TTITLE16=Destino cruel
TTITLE17=Aguas da saudades
TTITLE18=Berco de Deus
TTITLE19=Mensagem do alem
EXTD=Música Sertaneja Raiz
EXTT0=
EXTT1=
EXTT2=
EXTT3=
EXTT4=
EXTT5=
EXTT6=
EXTT7=
EXTT8=
EXTT9=
EXTT10=
EXTT11=
EXTT12=
EXTT13=
EXTT14=
EXTT15=
EXTT16=
EXTT17=
EXTT18=
EXTT19=
PLAYORDER=
